<svg xmlns="http://www.w3.org/2000/svg" viewBox="0 0 64 64">
  <defs><linearGradient id="g" x1="0" y1="0" x2="1" y2="1"><stop offset="0%" stop-color="#0d3b3b"/><stop offset="100%" stop-color="#14b8a6"/></linearGradient></defs>
  <rect x="2" y="2" width="60" height="60" rx="13.8" fill="url(#g)"/>
  <path fill="#ffffff" d="M22.34 15.57Q27.54 15.57 31.42 17.63Q35.31 19.69 37.44 23.41Q39.57 27.13 39.57 32.00L39.57 32.00Q39.57 36.82 37.44 40.56Q35.31 44.31 31.40 46.37Q27.49 48.43 22.34 48.43L22.34 48.43L10.03 48.43L10.03 15.57L22.34 15.57ZM21.83 41.50Q26.37 41.50 28.90 39.02Q31.42 36.54 31.42 32.00L31.42 32.00Q31.42 27.46 28.90 24.93Q26.37 22.41 21.83 22.41L21.83 22.41L18.04 22.41L18.04 41.50L21.83 41.50Z"/>
  <rect x="41.965399999999995" y="19.3232" width="12" height="4.5" rx="2.25" fill="#5eead4"/>
  <rect x="45.715399999999995" y="15.5732" width="4.5" height="12" rx="2.25" fill="#5eead4"/>
</svg>
